<svg width="20" height="20" viewBox="0 0 20 20" fill="none" xmlns="http://www.w3.org/2000/svg">
<path fill-rule="evenodd" clip-rule="evenodd" d="M0.249969 10C0.249969 9.44772 0.697685 9 1.24997 9H18.75C19.3023 9 19.75 9.44772 19.75 10C19.75 10.5523 19.3023 11 18.75 11H1.24997C0.697685 11 0.249969 10.5523 0.249969 10Z" fill="#1F2937"/>
<path fill-rule="evenodd" clip-rule="evenodd" d="M9.29289 0.542832C9.68342 0.152308 10.3166 0.152308 10.7071 0.542832L19.4571 9.29283C19.8476 9.68336 19.8476 10.3165 19.4571 10.707L10.7071 19.457C10.3166 19.8476 9.68342 19.8476 9.29289 19.457C8.90237 19.0665 8.90237 18.4334 9.29289 18.0428L17.3358 9.99994L9.29289 1.95705C8.90237 1.56652 8.90237 0.933356 9.29289 0.542832Z" fill="#1F2937"/>
</svg>
